<mxfile host="app.diagrams.net" agent="Mozilla/5.0 (Macintosh; Intel Mac OS X 10_15_7) AppleWebKit/537.36 (KHTML, like Gecko) Chrome/134.0.0.0 Safari/537.36" version="26.1.1">
  <diagram name="第 1 页" id="BLCJUKJOBsGtAnIevg1X">
    <mxGraphModel dx="529" dy="298" grid="0" gridSize="10" guides="1" tooltips="1" connect="1" arrows="1" fold="1" page="1" pageScale="1" pageWidth="827" pageHeight="1169" math="0" shadow="0">
      <root>
        <mxCell id="0" />
        <mxCell id="1" parent="0" />
        <mxCell id="oZPoVqtIYdc7A81qgwHR-65" value="" style="rounded=0;whiteSpace=wrap;html=1;labelBackgroundColor=none;textShadow=1;noLabel=1;fillColor=#dae8fc;strokeColor=none;" vertex="1" parent="1">
          <mxGeometry x="233" y="285" width="233" height="124" as="geometry" />
        </mxCell>
        <mxCell id="oZPoVqtIYdc7A81qgwHR-63" value="" style="rounded=1;whiteSpace=wrap;html=1;" vertex="1" parent="1">
          <mxGeometry x="313" y="228" width="120" height="40" as="geometry" />
        </mxCell>
        <mxCell id="oZPoVqtIYdc7A81qgwHR-44" style="edgeStyle=orthogonalEdgeStyle;rounded=0;orthogonalLoop=1;jettySize=auto;html=1;exitX=1;exitY=0.5;exitDx=0;exitDy=0;flowAnimation=1;" edge="1" parent="1" source="oZPoVqtIYdc7A81qgwHR-38">
          <mxGeometry relative="1" as="geometry">
            <mxPoint x="269" y="345" as="targetPoint" />
          </mxGeometry>
        </mxCell>
        <mxCell id="oZPoVqtIYdc7A81qgwHR-38" value="" style="shape=image;verticalLabelPosition=bottom;labelBackgroundColor=default;verticalAlign=top;aspect=fixed;imageAspect=0;image=https://cdn-icons-gif.flaticon.com/15401/15401497.gif;" vertex="1" parent="1">
          <mxGeometry x="126" y="279" width="38.43" height="38.43" as="geometry" />
        </mxCell>
        <mxCell id="oZPoVqtIYdc7A81qgwHR-39" value="" style="shape=image;verticalLabelPosition=bottom;labelBackgroundColor=default;verticalAlign=top;aspect=fixed;imageAspect=0;image=https://cdn-icons-gif.flaticon.com/16768/16768501.gif;" vertex="1" parent="1">
          <mxGeometry x="489.9999999999999" y="342" width="38" height="38" as="geometry" />
        </mxCell>
        <mxCell id="oZPoVqtIYdc7A81qgwHR-51" style="edgeStyle=orthogonalEdgeStyle;rounded=0;orthogonalLoop=1;jettySize=auto;html=1;exitX=1;exitY=0.5;exitDx=0;exitDy=0;flowAnimation=1;" edge="1" parent="1" source="oZPoVqtIYdc7A81qgwHR-41">
          <mxGeometry relative="1" as="geometry">
            <mxPoint x="317.0408163265306" y="365.59183673469386" as="targetPoint" />
          </mxGeometry>
        </mxCell>
        <mxCell id="oZPoVqtIYdc7A81qgwHR-41" value="" style="shape=image;verticalLabelPosition=bottom;labelBackgroundColor=default;verticalAlign=top;aspect=fixed;imageAspect=0;image=https://cdn-icons-gif.flaticon.com/14447/14447720.gif;" vertex="1" parent="1">
          <mxGeometry x="252" y="346" width="39" height="39" as="geometry" />
        </mxCell>
        <mxCell id="oZPoVqtIYdc7A81qgwHR-52" style="edgeStyle=orthogonalEdgeStyle;rounded=0;orthogonalLoop=1;jettySize=auto;html=1;exitX=1;exitY=0.5;exitDx=0;exitDy=0;entryX=0;entryY=0.5;entryDx=0;entryDy=0;flowAnimation=1;" edge="1" parent="1" source="oZPoVqtIYdc7A81qgwHR-43" target="oZPoVqtIYdc7A81qgwHR-50">
          <mxGeometry relative="1" as="geometry" />
        </mxCell>
        <mxCell id="oZPoVqtIYdc7A81qgwHR-43" value="" style="shape=image;verticalLabelPosition=bottom;labelBackgroundColor=default;verticalAlign=top;aspect=fixed;imageAspect=0;image=https://cdn-icons-gif.flaticon.com/10971/10971751.gif;" vertex="1" parent="1">
          <mxGeometry x="323" y="345.0000000000002" width="39" height="39" as="geometry" />
        </mxCell>
        <mxCell id="oZPoVqtIYdc7A81qgwHR-45" value="&lt;font face=&quot;Comic Sans MS&quot;&gt;Prd&lt;/font&gt;" style="text;html=1;align=center;verticalAlign=middle;resizable=0;points=[];autosize=1;strokeColor=none;fillColor=none;" vertex="1" parent="1">
          <mxGeometry x="164" y="275" width="37" height="27" as="geometry" />
        </mxCell>
        <mxCell id="oZPoVqtIYdc7A81qgwHR-47" style="edgeStyle=orthogonalEdgeStyle;rounded=0;orthogonalLoop=1;jettySize=auto;html=1;exitX=1;exitY=0.5;exitDx=0;exitDy=0;flowAnimation=1;" edge="1" parent="1" source="oZPoVqtIYdc7A81qgwHR-46">
          <mxGeometry relative="1" as="geometry">
            <mxPoint x="253.83333333333348" y="365.3333333333335" as="targetPoint" />
          </mxGeometry>
        </mxCell>
        <mxCell id="oZPoVqtIYdc7A81qgwHR-46" value="" style="shape=image;verticalLabelPosition=bottom;labelBackgroundColor=default;verticalAlign=top;aspect=fixed;imageAspect=0;image=https://cdn-icons-gif.flaticon.com/10690/10690693.gif;" vertex="1" parent="1">
          <mxGeometry x="126" y="346" width="38" height="38" as="geometry" />
        </mxCell>
        <mxCell id="oZPoVqtIYdc7A81qgwHR-48" value="&lt;font style=&quot;font-size: 11px;&quot;&gt;设计稿&lt;/font&gt;" style="text;html=1;align=center;verticalAlign=middle;resizable=0;points=[];autosize=1;strokeColor=none;fillColor=none;fontFamily=Lucida Console;" vertex="1" parent="1">
          <mxGeometry x="164.43" y="339" width="51" height="26" as="geometry" />
        </mxCell>
        <mxCell id="oZPoVqtIYdc7A81qgwHR-50" value="" style="shape=image;verticalLabelPosition=bottom;labelBackgroundColor=default;verticalAlign=top;aspect=fixed;imageAspect=0;image=https://cdn-icons-gif.flaticon.com/10971/10971751.gif;" vertex="1" parent="1">
          <mxGeometry x="394" y="345.0000000000002" width="39" height="39" as="geometry" />
        </mxCell>
        <mxCell id="oZPoVqtIYdc7A81qgwHR-53" style="edgeStyle=orthogonalEdgeStyle;rounded=0;orthogonalLoop=1;jettySize=auto;html=1;exitX=1;exitY=0.5;exitDx=0;exitDy=0;entryX=0.046;entryY=0.583;entryDx=0;entryDy=0;entryPerimeter=0;flowAnimation=1;" edge="1" parent="1" source="oZPoVqtIYdc7A81qgwHR-50" target="oZPoVqtIYdc7A81qgwHR-39">
          <mxGeometry relative="1" as="geometry" />
        </mxCell>
        <mxCell id="oZPoVqtIYdc7A81qgwHR-54" value="&lt;div&gt;&lt;font face=&quot;Comic Sans MS&quot;&gt;ui-parser&lt;/font&gt;&lt;/div&gt;&lt;font face=&quot;Comic Sans MS&quot;&gt;doubao_1.5_vision_pro&lt;/font&gt;" style="text;html=1;align=center;verticalAlign=middle;resizable=0;points=[];autosize=1;strokeColor=none;fillColor=none;fontSize=5;" vertex="1" parent="1">
          <mxGeometry x="234" y="377" width="71" height="24" as="geometry" />
        </mxCell>
        <mxCell id="oZPoVqtIYdc7A81qgwHR-55" value="&lt;div&gt;&lt;font face=&quot;Comic Sans MS&quot;&gt;lynx-developer&lt;/font&gt;&lt;/div&gt;&lt;font face=&quot;Comic Sans MS&quot;&gt;doubao_1.5_pro&lt;/font&gt;" style="text;html=1;align=center;verticalAlign=middle;resizable=0;points=[];autosize=1;strokeColor=none;fillColor=none;fontSize=5;" vertex="1" parent="1">
          <mxGeometry x="316" y="377" width="55" height="24" as="geometry" />
        </mxCell>
        <mxCell id="oZPoVqtIYdc7A81qgwHR-56" value="&lt;div&gt;lynx-optimizer&lt;/div&gt;&lt;font face=&quot;Comic Sans MS&quot;&gt;doubao_1.5_pro&lt;/font&gt;" style="text;html=1;align=center;verticalAlign=middle;resizable=0;points=[];autosize=1;strokeColor=none;fillColor=none;fontSize=5;" vertex="1" parent="1">
          <mxGeometry x="388" y="377" width="55" height="24" as="geometry" />
        </mxCell>
        <mxCell id="oZPoVqtIYdc7A81qgwHR-57" value="" style="shape=image;verticalLabelPosition=bottom;labelBackgroundColor=default;verticalAlign=top;aspect=fixed;imageAspect=0;image=https://cdn-icons-png.flaticon.com/128/12281/12281255.png;" vertex="1" parent="1">
          <mxGeometry x="361.04999999999995" y="306" width="23.9" height="23.9" as="geometry" />
        </mxCell>
        <mxCell id="oZPoVqtIYdc7A81qgwHR-58" value="" style="shape=image;verticalLabelPosition=bottom;labelBackgroundColor=default;verticalAlign=top;aspect=fixed;imageAspect=0;image=https://cdn-icons-gif.flaticon.com/11677/11677427.gif;" vertex="1" parent="1">
          <mxGeometry x="316" y="232" width="30" height="30" as="geometry" />
        </mxCell>
        <mxCell id="oZPoVqtIYdc7A81qgwHR-59" value="" style="shape=image;verticalLabelPosition=bottom;labelBackgroundColor=default;verticalAlign=top;aspect=fixed;imageAspect=0;image=https://cdn-icons-gif.flaticon.com/11677/11677427.gif;" vertex="1" parent="1">
          <mxGeometry x="346" y="232" width="30" height="30" as="geometry" />
        </mxCell>
        <mxCell id="oZPoVqtIYdc7A81qgwHR-60" value="" style="shape=image;verticalLabelPosition=bottom;labelBackgroundColor=default;verticalAlign=top;aspect=fixed;imageAspect=0;image=https://cdn-icons-gif.flaticon.com/11677/11677427.gif;" vertex="1" parent="1">
          <mxGeometry x="393" y="231" width="30" height="30" as="geometry" />
        </mxCell>
        <mxCell id="oZPoVqtIYdc7A81qgwHR-61" value="..." style="text;html=1;align=center;verticalAlign=middle;resizable=0;points=[];autosize=1;strokeColor=none;fillColor=none;" vertex="1" parent="1">
          <mxGeometry x="371" y="233" width="28" height="26" as="geometry" />
        </mxCell>
        <mxCell id="oZPoVqtIYdc7A81qgwHR-64" value="Lynx Document" style="text;html=1;align=center;verticalAlign=middle;resizable=0;points=[];autosize=1;strokeColor=none;fillColor=none;fontFamily=Comic Sans MS;fontSize=10;" vertex="1" parent="1">
          <mxGeometry x="325.5" y="204" width="89" height="24" as="geometry" />
        </mxCell>
        <mxCell id="oZPoVqtIYdc7A81qgwHR-66" value="" style="endArrow=classic;html=1;rounded=0;exitX=0.5;exitY=1;exitDx=0;exitDy=0;entryX=0.5;entryY=0;entryDx=0;entryDy=0;flowAnimation=1;" edge="1" parent="1" source="oZPoVqtIYdc7A81qgwHR-63" target="oZPoVqtIYdc7A81qgwHR-57">
          <mxGeometry width="50" height="50" relative="1" as="geometry">
            <mxPoint x="328" y="388" as="sourcePoint" />
            <mxPoint x="378" y="338" as="targetPoint" />
          </mxGeometry>
        </mxCell>
        <mxCell id="oZPoVqtIYdc7A81qgwHR-67" value="" style="endArrow=classic;html=1;rounded=0;entryX=0.5;entryY=0;entryDx=0;entryDy=0;flowAnimation=1;fillColor=#fff2cc;strokeColor=#d6b656;" edge="1" parent="1" target="oZPoVqtIYdc7A81qgwHR-43">
          <mxGeometry width="50" height="50" relative="1" as="geometry">
            <mxPoint x="359" y="320" as="sourcePoint" />
            <mxPoint x="378" y="338" as="targetPoint" />
          </mxGeometry>
        </mxCell>
        <mxCell id="oZPoVqtIYdc7A81qgwHR-68" value="" style="endArrow=classic;html=1;rounded=0;entryX=0.5;entryY=0;entryDx=0;entryDy=0;flowAnimation=1;fillColor=#fff2cc;strokeColor=#d6b656;" edge="1" parent="1" target="oZPoVqtIYdc7A81qgwHR-50">
          <mxGeometry width="50" height="50" relative="1" as="geometry">
            <mxPoint x="389" y="326" as="sourcePoint" />
            <mxPoint x="378" y="338" as="targetPoint" />
          </mxGeometry>
        </mxCell>
        <mxCell id="oZPoVqtIYdc7A81qgwHR-70" value="&lt;div&gt;developer&lt;/div&gt;&lt;div&gt;二次开发&lt;/div&gt;" style="text;html=1;align=center;verticalAlign=middle;resizable=0;points=[];autosize=1;strokeColor=none;fillColor=none;fontSize=5;" vertex="1" parent="1">
          <mxGeometry x="489" y="377" width="40" height="24" as="geometry" />
        </mxCell>
        <mxCell id="oZPoVqtIYdc7A81qgwHR-72" value="Agent" style="text;html=1;align=center;verticalAlign=middle;resizable=0;points=[];autosize=1;strokeColor=none;fillColor=none;fontFamily=Comic Sans MS;" vertex="1" parent="1">
          <mxGeometry x="317.5" y="280" width="52" height="26" as="geometry" />
        </mxCell>
      </root>
    </mxGraphModel>
  </diagram>
</mxfile>
